<?xml version="1.0" encoding="iso-8859-1"?>
<!-- Generator: Adobe Illustrator 18.0.0, SVG Export Plug-In . SVG Version: 6.00 Build 0)  -->
<!DOCTYPE svg PUBLIC "-//W3C//DTD SVG 1.1//EN" "http://www.w3.org/Graphics/SVG/1.1/DTD/svg11.dtd">
<svg version="1.1" id="Capa_1" xmlns="http://www.w3.org/2000/svg" xmlns:xlink="http://www.w3.org/1999/xlink" x="0px" y="0px"
	 viewBox="0 0 264.678 264.678" style="enable-background:new 0 0 264.678 264.678;" xml:space="preserve">
<path d="M258.628,123.119c0-16.085-28.859-24.501-57.366-24.501c-10.194,0-20.424,1.082-29.372,3.201l8.358-5.093
	c1.486-0.906,2.392-2.519,2.393-4.259l0.009-24.538l26.084-26.963c1.916-1.981,1.864-5.139-0.117-7.056
	c-1.984-1.918-5.142-1.863-7.056,0.117L174.074,62.44c-0.9,0.93-1.404,2.173-1.404,3.467l-0.009,23.754l-23.045,14.044
	c-1.428-2.844-3.169-5.309-5.154-7.291c4.238-3.568,6.941-8.905,6.941-14.866c0-8.855-5.958-16.331-14.07-18.666L137.327,4.99
	c-0.001-2.756-2.236-4.99-4.991-4.99c-2.756,0.001-4.99,2.235-4.989,4.99l0.007,57.702c-8.489,2.081-14.815,9.734-14.815,18.856
	c0,6.153,2.884,11.637,7.361,15.201c-1.851,1.924-3.485,4.27-4.836,6.96L92.014,89.661l-0.007-23.754
	c-0.001-1.294-0.504-2.538-1.404-3.468l-27.49-28.413c-1.915-1.98-5.075-2.031-7.056-0.117c-1.981,1.916-2.032,5.076-0.117,7.056
	l26.087,26.962l0.007,24.538c0.001,1.74,0.907,3.354,2.393,4.259l8.357,5.093c-8.948-2.119-19.179-3.201-29.373-3.201
	c-28.505,0-57.362,8.416-57.362,24.501c0,16.089,28.857,24.508,57.362,24.508c13.913,0,27.901-2.012,38.585-5.936l-16.672,13.933
	c-1.135,0.948-1.79,2.35-1.79,3.829v23.614l-25.959,26.72c-1.92,1.977-1.875,5.136,0.102,7.056c0.969,0.942,2.223,1.411,3.476,1.411
	c1.301,0,2.601-0.506,3.579-1.513l27.371-28.172c0.905-0.931,1.411-2.178,1.411-3.477v-23.306l22.015-18.399
	c0.274,0.51,0.542,1.026,0.839,1.512c0.711,1.164,1.473,2.232,2.276,3.209l-20.22,16.884c-1.135,0.948-1.792,2.351-1.792,3.83
	v44.042l-36.329,43.633c-1.763,2.118-1.476,5.264,0.642,7.027c0.932,0.777,2.064,1.155,3.19,1.155c1.431,0,2.851-0.612,3.837-1.797
	l37.484-45.021c0.746-0.896,1.155-2.026,1.155-3.193v-43.513l7.711-6.439c-2.337,7.588-3.529,16.608-3.527,25.586
	c0,22.386,7.401,45.047,21.546,45.047c14.138,0,21.542-22.661,21.548-45.047c-0.001-8.976-1.196-17.993-3.536-25.58l7.705,6.433
	l0.002,43.513c0,1.167,0.408,2.296,1.155,3.193l37.481,45.021c0.987,1.185,2.407,1.797,3.838,1.797c1.125,0,2.257-0.378,3.189-1.155
	c2.118-1.763,2.406-4.909,0.642-7.027l-36.326-43.633l-0.002-44.042c0-1.48-0.657-2.882-1.792-3.83l-20.226-16.889
	c1.266-1.532,2.406-3.281,3.403-5.207l22.603,18.89v23.306c0,1.299,0.506,2.546,1.411,3.477l27.37,28.172
	c0.979,1.007,2.278,1.513,3.579,1.513c1.254,0,2.507-0.469,3.477-1.411c1.977-1.92,2.023-5.079,0.102-7.056l-25.96-26.72v-23.614
	c0-1.479-0.656-2.881-1.79-3.829l-16.022-13.391c10.472,3.569,23.804,5.393,37.063,5.393
	C229.769,147.626,258.628,139.208,258.628,123.119z M248.648,123.119c0,5.784-18.899,14.528-47.386,14.528
	c-28.438,0-47.317-8.718-47.373-14.502c0-0.009,0-0.017,0-0.026c0-0.009,0-0.017,0-0.026c0.056-5.781,18.934-14.495,47.373-14.495
	C229.749,108.598,248.648,117.338,248.648,123.119z M132.35,145.25c0,0-0.013,0-0.013,0c-2.58,0.001-5.296-2.023-7.449-5.552
	c-2.616-4.286-4.116-10.329-4.116-16.577c0.002-3.846,0.542-7.335,1.43-10.363c0.025-0.069,0.037-0.141,0.059-0.211
	c2.142-7.12,6.26-11.565,10.076-11.565c3.762,0.003,7.821,4.301,9.99,11.224c0.049,0.201,0.092,0.401,0.166,0.597
	c0.878,3.007,1.412,6.468,1.415,10.28c0,0.012-0.002,0.024-0.002,0.036c0,0.012,0.002,0.023,0.002,0.035
	C143.894,136.177,137.811,145.25,132.35,145.25z M131.973,72.094c5.211,0,9.45,4.241,9.45,9.455c0,5.212-4.239,9.453-9.45,9.453
	c-5.213,0-9.454-4.241-9.454-9.453C122.519,76.335,126.76,72.094,131.973,72.094z M16.031,123.119
	c0-5.781,18.898-14.521,47.382-14.521c28.483,0,47.38,8.74,47.38,14.521c0,5.784-18.897,14.528-47.38,14.528
	C34.929,137.646,16.031,128.902,16.031,123.119z M132.344,225.369c-3.925,0-11.566-12.377-11.566-35.068
	c-0.006-22.688,7.634-35.068,11.555-35.071c3.929,0.002,11.576,12.384,11.579,35.071
	C143.906,212.992,136.267,225.369,132.344,225.369z"/>
<g>
</g>
<g>
</g>
<g>
</g>
<g>
</g>
<g>
</g>
<g>
</g>
<g>
</g>
<g>
</g>
<g>
</g>
<g>
</g>
<g>
</g>
<g>
</g>
<g>
</g>
<g>
</g>
<g>
</g>
</svg>
